<?xml version="1.0" encoding="UTF-8"?>
<svg xmlns="http://www.w3.org/2000/svg" xmlns:xlink="http://www.w3.org/1999/xlink" width="43pt" height="50pt" viewBox="0 0 43 50" version="1.1">
<g id="surface1">
<path style=" stroke:none;fill-rule:nonzero;fill:rgb(0%,0%,0%);fill-opacity:1;" d="M 20.800781 12.703125 C 20.800781 12.867188 20.636719 12.867188 20.636719 12.867188 L 20.476562 12.867188 C 20.3125 12.867188 20.3125 12.703125 20.152344 12.542969 C 20.152344 12.542969 19.992188 12.382812 19.992188 12.222656 C 19.992188 12.0625 19.992188 12.0625 20.152344 12.0625 L 20.476562 12.222656 C 20.636719 12.382812 20.800781 12.542969 20.800781 12.703125 M 17.890625 11.101562 C 17.890625 10.300781 17.566406 9.820312 17.082031 9.820312 C 17.082031 9.820312 17.082031 9.980469 16.917969 9.980469 L 16.917969 10.300781 L 17.40625 10.300781 C 17.40625 10.621094 17.566406 10.78125 17.566406 11.101562 L 17.890625 11.101562 M 23.546875 10.300781 C 23.871094 10.300781 24.03125 10.621094 24.195312 11.101562 L 24.515625 11.101562 C 24.355469 10.941406 24.355469 10.78125 24.355469 10.621094 C 24.355469 10.460938 24.355469 10.300781 24.195312 10.140625 C 24.03125 9.980469 23.871094 9.820312 23.707031 9.820312 C 23.707031 9.820312 23.546875 9.980469 23.386719 9.980469 C 23.386719 10.140625 23.546875 10.140625 23.546875 10.300781 M 18.699219 12.867188 C 18.535156 12.867188 18.535156 12.867188 18.535156 12.703125 C 18.535156 12.542969 18.535156 12.382812 18.699219 12.222656 C 19.019531 12.222656 19.183594 12.0625 19.183594 12.0625 C 19.34375 12.0625 19.34375 12.222656 19.34375 12.222656 C 19.34375 12.382812 19.183594 12.542969 18.859375 12.867188 L 18.699219 12.867188 M 16.917969 12.703125 C 16.273438 12.382812 16.109375 11.902344 16.109375 11.101562 C 16.109375 10.621094 16.109375 10.300781 16.433594 9.980469 C 16.597656 9.660156 16.917969 9.5 17.242188 9.5 C 17.566406 9.5 17.726562 9.660156 18.050781 9.980469 C 18.210938 10.460938 18.375 10.941406 18.375 11.421875 L 18.375 11.742188 L 18.535156 11.742188 L 18.535156 11.582031 C 18.699219 11.582031 18.699219 11.261719 18.699219 10.621094 C 18.699219 10.140625 18.699219 9.660156 18.375 9.179688 C 18.050781 8.699219 17.726562 8.378906 17.082031 8.378906 C 16.597656 8.378906 16.109375 8.699219 15.949219 9.179688 C 15.625 9.820312 15.5625 10.300781 15.5625 11.101562 C 15.5625 11.742188 15.789062 12.382812 16.433594 13.027344 C 16.597656 12.867188 16.757812 12.867188 16.917969 12.703125 M 37.125 35.300781 C 37.289062 35.300781 37.289062 35.238281 37.289062 35.09375 C 37.289062 34.742188 37.125 34.324219 36.640625 33.859375 C 36.15625 33.378906 35.347656 33.074219 34.378906 32.945312 C 34.214844 32.929688 34.054688 32.929688 34.054688 32.929688 C 33.894531 32.898438 33.894531 32.898438 33.730469 32.898438 C 33.570312 32.882812 33.246094 32.847656 33.085938 32.816406 C 33.570312 31.328125 33.730469 30.011719 33.730469 28.859375 C 33.730469 27.257812 33.40625 26.132812 32.761719 25.171875 C 32.113281 24.210938 31.46875 23.730469 30.660156 23.570312 C 30.5 23.730469 30.5 23.730469 30.5 23.890625 C 31.304688 24.210938 32.113281 24.851562 32.601562 25.8125 C 33.085938 26.9375 33.246094 27.898438 33.246094 29.019531 C 33.246094 29.917969 33.085938 31.246094 32.4375 32.945312 C 31.792969 33.203125 31.144531 33.792969 30.660156 34.722656 C 30.660156 34.867188 30.660156 34.949219 30.820312 34.949219 C 30.820312 34.949219 30.984375 34.804688 31.144531 34.53125 C 31.46875 34.257812 31.628906 33.988281 31.953125 33.714844 C 32.4375 33.441406 32.761719 33.296875 33.246094 33.296875 C 34.054688 33.296875 34.863281 33.410156 35.347656 33.632812 C 35.996094 33.84375 36.316406 34.066406 36.480469 34.324219 C 36.640625 34.5625 36.804688 34.789062 36.964844 34.996094 C 36.964844 35.203125 37.125 35.300781 37.125 35.300781 M 22.253906 12.0625 C 22.09375 11.902344 22.09375 11.582031 22.09375 11.261719 C 22.09375 10.621094 22.09375 10.300781 22.414062 9.820312 C 22.738281 9.5 23.0625 9.339844 23.386719 9.339844 C 23.871094 9.339844 24.195312 9.660156 24.515625 9.980469 C 24.679688 10.460938 24.839844 10.78125 24.839844 11.261719 C 24.839844 12.0625 24.515625 12.542969 23.871094 12.703125 C 23.871094 12.703125 24.03125 12.867188 24.195312 12.867188 C 24.515625 12.867188 24.679688 13.027344 25.003906 13.1875 C 25.164062 12.222656 25.324219 11.582031 25.324219 10.78125 C 25.324219 9.820312 25.164062 9.179688 24.839844 8.699219 C 24.355469 8.21875 23.871094 8.058594 23.222656 8.058594 C 22.738281 8.058594 22.253906 8.21875 21.769531 8.539062 C 21.445312 9.019531 21.285156 9.339844 21.285156 9.820312 C 21.285156 10.621094 21.445312 11.261719 21.769531 11.902344 C 21.929688 11.902344 22.09375 12.0625 22.253906 12.0625 M 24.195312 14.628906 C 22.09375 16.070312 20.476562 16.710938 19.183594 16.710938 C 18.050781 16.710938 16.917969 16.230469 15.949219 15.429688 C 16.109375 15.75 16.273438 16.070312 16.433594 16.230469 L 17.40625 17.191406 C 18.050781 17.832031 18.859375 18.152344 19.667969 18.152344 C 20.800781 18.152344 22.09375 17.511719 23.707031 16.390625 L 25.164062 15.429688 C 25.488281 15.109375 25.808594 14.789062 25.808594 14.308594 C 25.808594 14.148438 25.808594 13.988281 25.648438 13.988281 C 25.488281 13.667969 24.679688 13.1875 23.0625 12.703125 C 21.605469 12.0625 20.476562 11.742188 19.828125 11.742188 C 19.34375 11.742188 18.535156 12.0625 17.40625 12.703125 C 16.433594 13.347656 15.789062 13.988281 15.789062 14.628906 C 15.789062 14.628906 15.949219 14.789062 16.109375 15.109375 C 17.082031 15.910156 18.050781 16.390625 19.019531 16.390625 C 20.3125 16.390625 21.929688 15.75 24.03125 14.148438 L 24.03125 14.46875 C 24.195312 14.46875 24.195312 14.628906 24.195312 14.628906 M 27.910156 47 C 28.558594 48.203125 29.691406 48.8125 30.984375 48.8125 C 31.304688 48.8125 31.628906 48.761719 31.953125 48.667969 C 32.277344 48.601562 32.601562 48.492188 32.761719 48.363281 C 32.921875 48.25 33.085938 48.136719 33.246094 48.007812 C 33.570312 47.898438 33.570312 47.816406 33.730469 47.738281 L 36.480469 45.382812 C 37.125 44.871094 37.773438 44.421875 38.582031 44.035156 C 39.226562 43.652344 39.875 43.394531 40.199219 43.25 C 40.683594 43.121094 41.003906 42.929688 41.328125 42.671875 C 41.492188 42.433594 41.652344 42.128906 41.652344 41.742188 C 41.652344 41.277344 41.328125 40.925781 41.003906 40.667969 C 40.683594 40.414062 40.359375 40.238281 40.035156 40.125 C 39.710938 40.011719 39.390625 39.757812 38.90625 39.324219 C 38.582031 38.90625 38.257812 38.328125 38.097656 37.578125 L 37.933594 36.648438 C 37.773438 36.214844 37.773438 35.894531 37.609375 35.71875 C 37.609375 35.667969 37.609375 35.652344 37.449219 35.652344 C 37.289062 35.652344 36.964844 35.796875 36.804688 36.070312 C 36.480469 36.34375 36.15625 36.648438 35.832031 36.96875 C 35.671875 37.289062 35.1875 37.578125 34.863281 37.847656 C 34.378906 38.121094 33.894531 38.265625 33.570312 38.265625 C 32.277344 38.265625 31.628906 37.914062 31.144531 37.222656 C 30.820312 36.710938 30.660156 36.117188 30.5 35.445312 C 30.175781 35.171875 30.011719 35.027344 29.691406 35.027344 C 28.882812 35.027344 28.558594 35.863281 28.558594 37.542969 L 28.558594 42.527344 C 28.558594 42.671875 28.398438 42.992188 28.398438 43.492188 C 28.234375 43.988281 28.234375 44.550781 28.234375 45.1875 L 27.910156 46.96875 L 27.910156 46.996094 M 4.472656 46.148438 C 5.976562 46.367188 7.707031 46.832031 9.660156 47.542969 C 11.617188 48.25 12.8125 48.617188 13.25 48.617188 C 14.382812 48.617188 15.320312 48.121094 16.09375 47.160156 C 16.257812 46.847656 16.257812 46.484375 16.257812 46.0625 C 16.257812 44.550781 15.335938 42.632812 13.492188 40.3125 L 12.394531 38.851562 C 12.167969 38.546875 11.890625 38.082031 11.535156 37.457031 C 11.195312 36.832031 10.890625 36.351562 10.648438 36.015625 C 10.4375 35.648438 10.097656 35.277344 9.660156 34.910156 C 9.242188 34.542969 8.753906 34.300781 8.222656 34.171875 C 7.542969 34.300781 7.074219 34.527344 6.847656 34.828125 C 6.621094 35.132812 6.492188 35.472656 6.460938 35.824219 C 6.410156 36.160156 6.316406 36.382812 6.152344 36.496094 C 5.992188 36.59375 5.714844 36.671875 5.34375 36.753906 C 5.265625 36.753906 5.117188 36.753906 4.910156 36.769531 L 4.472656 36.769531 C 3.617188 36.769531 3.035156 36.867188 2.726562 37.027344 C 2.320312 37.492188 2.113281 38.019531 2.113281 38.578125 C 2.113281 38.835938 2.175781 39.269531 2.304688 39.878906 C 2.433594 40.472656 2.5 40.953125 2.5 41.289062 C 2.5 41.945312 2.304688 42.601562 1.902344 43.257812 C 1.496094 43.949219 1.289062 44.460938 1.289062 44.828125 C 1.449219 45.449219 2.515625 45.886719 4.472656 46.140625 M 9.855469 31.574219 C 9.855469 30.46875 10.144531 29.25 10.746094 27.808594 C 11.324219 26.367188 11.90625 25.40625 12.472656 24.765625 C 12.441406 24.605469 12.359375 24.605469 12.230469 24.605469 L 12.070312 24.445312 C 11.601562 24.925781 11.035156 26.046875 10.355469 27.648438 C 9.675781 29.089844 9.320312 30.421875 9.320312 31.398438 C 9.320312 32.121094 9.5 32.746094 9.824219 33.289062 C 10.179688 33.820312 11.035156 34.589844 12.394531 35.566406 L 14.105469 36.671875 C 15.933594 38.242188 16.902344 39.332031 16.902344 39.972656 C 16.902344 40.308594 16.742188 40.644531 16.257812 41.015625 C 15.933594 41.398438 15.496094 41.589844 15.125 41.589844 C 15.09375 41.589844 15.078125 41.625 15.078125 41.703125 C 15.078125 41.71875 15.238281 42.039062 15.578125 42.664062 C 16.257812 43.578125 17.710938 44.027344 19.652344 44.027344 C 23.207031 44.027344 25.957031 42.585938 28.058594 39.699219 C 28.058594 38.898438 28.058594 38.402344 27.894531 38.195312 L 27.894531 37.601562 C 27.894531 36.558594 28.058594 35.773438 28.378906 35.261719 C 28.703125 34.75 29.027344 34.507812 29.511719 34.507812 C 29.835938 34.507812 30.160156 34.621094 30.480469 34.859375 C 30.644531 33.625 30.644531 32.554688 30.644531 31.589844 C 30.644531 30.132812 30.644531 28.929688 30.320312 27.808594 C 30.160156 26.847656 29.835938 26.046875 29.511719 25.40625 C 29.1875 24.925781 28.867188 24.445312 28.542969 23.964844 C 28.21875 23.480469 28.058594 23 27.734375 22.519531 C 27.574219 21.878906 27.410156 21.398438 27.410156 20.597656 C 26.925781 19.796875 26.601562 18.996094 26.117188 18.195312 C 25.792969 17.390625 25.472656 16.589844 25.148438 15.949219 L 23.691406 17.070312 C 22.074219 18.195312 20.78125 18.675781 19.652344 18.675781 C 18.679688 18.675781 17.875 18.515625 17.386719 17.875 L 16.417969 17.070312 C 16.417969 17.554688 16.257812 18.195312 15.933594 18.835938 L 14.914062 20.757812 C 14.460938 21.878906 14.21875 22.519531 14.171875 23 C 14.105469 23.320312 14.058594 23.640625 14.027344 23.640625 L 12.8125 26.046875 C 11.503906 28.449219 10.839844 30.679688 10.839844 32.519531 C 10.839844 32.890625 10.875 33.273438 10.9375 33.660156 C 10.210938 33.160156 9.855469 32.472656 9.855469 31.574219 M 21.429688 46.734375 C 19.328125 46.734375 17.710938 47.015625 16.578125 47.578125 L 16.578125 47.527344 C 15.773438 48.492188 14.867188 48.988281 13.605469 48.988281 C 12.8125 48.988281 11.570312 48.683594 9.886719 48.074219 C 8.191406 47.496094 6.6875 47.054688 5.378906 46.761719 C 5.246094 46.726562 4.957031 46.671875 4.488281 46.597656 C 4.035156 46.527344 3.617188 46.453125 3.242188 46.378906 C 2.902344 46.304688 2.515625 46.195312 2.09375 46.050781 C 1.691406 45.921875 1.367188 45.757812 1.125 45.558594 C 0.902344 45.355469 0.792969 45.128906 0.792969 44.875 C 0.792969 44.617188 0.847656 44.34375 0.957031 44.050781 C 1.0625 43.875 1.175781 43.699219 1.289062 43.539062 C 1.402344 43.363281 1.496094 43.203125 1.5625 43.042969 C 1.660156 42.898438 1.722656 42.753906 1.789062 42.59375 C 1.851562 42.449219 1.917969 42.304688 1.949219 42.128906 C 1.984375 41.96875 2.015625 41.808594 2.015625 41.648438 C 2.015625 41.488281 1.949219 41.007812 1.820312 40.15625 C 1.691406 39.324219 1.625 38.792969 1.625 38.570312 C 1.625 37.867188 1.789062 37.304688 2.144531 36.902344 C 2.5 36.503906 2.839844 36.292969 3.195312 36.292969 L 5.054688 36.292969 C 5.199219 36.292969 5.425781 36.214844 5.765625 36.023438 C 5.878906 35.765625 5.976562 35.558594 6.039062 35.367188 C 6.121094 35.171875 6.152344 35.027344 6.183594 34.964844 C 6.21875 34.867188 6.25 34.773438 6.28125 34.691406 C 6.347656 34.578125 6.429688 34.453125 6.542969 34.324219 C 6.410156 34.164062 6.347656 33.953125 6.347656 33.699219 C 6.347656 33.523438 6.347656 33.363281 6.378906 33.265625 C 6.378906 32.6875 6.65625 31.871094 7.234375 30.796875 L 7.800781 29.789062 C 8.269531 28.921875 8.625 28.28125 8.886719 27.640625 C 9.160156 27 9.449219 26.039062 9.773438 24.757812 C 10.03125 23.632812 10.648438 22.511719 11.617188 21.390625 L 12.828125 19.949219 C 13.671875 18.988281 14.21875 18.1875 14.527344 17.542969 C 14.835938 16.902344 14.996094 16.101562 14.996094 15.460938 C 14.996094 15.140625 14.914062 14.179688 14.738281 12.578125 C 14.574219 10.972656 14.496094 9.371094 14.496094 7.929688 C 14.496094 6.808594 14.589844 6.007812 14.800781 5.203125 C 15.011719 4.402344 15.382812 3.601562 15.933594 2.960938 C 16.417969 2.320312 17.066406 1.679688 18.035156 1.359375 C 19.003906 1.039062 20.136719 0.878906 21.429688 0.878906 C 21.914062 0.878906 22.398438 0.878906 22.882812 1.039062 C 23.371094 1.039062 24.015625 1.199219 24.824219 1.519531 C 25.472656 1.839844 26.117188 2.160156 26.601562 2.640625 C 27.25 3.121094 27.734375 3.921875 28.21875 4.722656 C 28.542969 5.6875 28.867188 6.648438 29.027344 7.929688 C 29.1875 8.730469 29.1875 9.53125 29.351562 10.652344 C 29.351562 11.617188 29.511719 12.257812 29.511719 12.738281 C 29.675781 13.21875 29.675781 13.859375 29.835938 14.660156 C 29.996094 15.300781 30.160156 15.941406 30.480469 16.421875 C 30.804688 17.0625 31.128906 17.703125 31.613281 18.347656 C 32.097656 19.148438 32.746094 19.949219 33.390625 20.910156 C 34.847656 22.511719 35.976562 24.277344 36.625 26.039062 C 37.433594 27.640625 37.917969 29.722656 37.917969 31.953125 C 37.917969 33.058594 37.757812 34.132812 37.433594 35.171875 C 37.757812 35.171875 37.917969 35.300781 38.078125 35.527344 C 38.242188 35.75 38.402344 36.230469 38.566406 36.984375 L 38.726562 38.167969 C 38.886719 38.523438 39.050781 38.859375 39.535156 39.148438 C 39.859375 39.4375 40.179688 39.675781 40.667969 39.867188 C 40.988281 40.027344 41.476562 40.253906 41.796875 40.542969 C 42.121094 40.863281 42.28125 41.199219 42.28125 41.550781 C 42.28125 42.097656 42.121094 42.496094 41.796875 42.785156 C 41.476562 43.105469 41.152344 43.328125 40.667969 43.472656 C 40.34375 43.632812 39.695312 43.953125 38.726562 44.40625 C 37.917969 44.882812 37.109375 45.457031 36.300781 46.136719 L 34.683594 47.5 C 34.039062 48.125 33.390625 48.574219 32.90625 48.847656 C 32.421875 49.136719 31.777344 49.28125 31.128906 49.28125 L 29.996094 49.152344 C 28.703125 48.816406 27.894531 48.175781 27.410156 47.195312 C 24.824219 46.886719 22.722656 46.730469 21.429688 46.730469 "/>
</g>
</svg>
